<svg width="585" height="585" viewBox="0 0 585 585" fill="none" xmlns="http://www.w3.org/2000/svg">
<path d="M384.969 117.484L292.333 277.935L199.697 117.484L384.969 117.484Z" stroke="#151515" stroke-width="15"/>
<path d="M367.493 89.6255L291.5 221.249L215.507 89.6255H367.493Z" fill="#FF7130" stroke="#151515" stroke-width="3.75101"/>
<path d="M291.5 360L212.259 497.25H370.741L291.5 360Z" fill="#FF7130"/>
<path d="M351.75 265.742L430.991 128.492L510.233 265.742L351.75 265.742Z" fill="#FF7130"/>
<path d="M186.61 470.578L85.3137 295.127L287.907 295.127L186.61 470.578Z" stroke="black" stroke-width="5"/>
<path d="M186.61 460.578L93.974 300.127L279.247 300.127L186.61 460.578Z" stroke="#151515" stroke-width="15"/>
<path d="M153.991 455.718L78.0173 324.127L229.965 324.127L153.991 455.718Z" fill="#FF7130" stroke="#151515" stroke-width="3.77272"/>
<path d="M490.603 300.119L397.967 460.57L305.331 300.119L490.603 300.119Z" stroke="#151515" stroke-width="15"/>
<path d="M507.476 323.635L431.5 455.23L355.524 323.635L507.476 323.635Z" fill="#FF7130" stroke="#151515" stroke-width="3.77016"/>
<path d="M153.5 128L232.741 265.25H74.2587L153.5 128Z" fill="#FF7130"/>
<path d="M100.306 251L154 158L207.694 251L100.306 251Z" fill="#151515" stroke="#151515" stroke-width="5"/>
<path d="M239.306 483L293 390L346.694 483H239.306Z" fill="#151515" stroke="#151515" stroke-width="5"/>
<path d="M377.306 251L431 158L484.694 251L377.306 251Z" fill="#151515" stroke="#151515" stroke-width="5"/>
</svg>
